<?xml version="1.0"?>
<!DOCTYPE svg PUBLIC "-//W3C//DTD SVG 1.1//EN" "http://www.w3.org/Graphics/SVG/1.1/DTD/svg11.dtd">
<svg width="139.90310228523362mm" height="261.8265786272886mm" viewBox="0 0 139.90310228523362 261.8265786272886" xmlns="http://www.w3.org/2000/svg" version="1.1">
<g id="Shape016" transform="translate(-37.732628,-8.590441) scale(1,-1)">
<path id="Shape016"  d="M 91.24507649739584 -269.04542100694437
C 92.64654134114583 -269.04542100694437 93.68558213975693 -269.04542100694437 93.87092827690972 -269.04542100694437
C 94.00838758680555 -269.04542100694437 94.08590223524305 -269.04542100694437 94.10123291015624 -269.04542100694437
C 95.03278672960069 -269.04542100694437 95.04398328993057 -268.2427137586806 95.04398328993057 -268.2427137586806
C 95.05690239800347 -267.4427625868056 95.04398328993057 -260.7082899305556 95.04398328993057 -260.7082899305556
C 95.04398328993057 -259.8580403645834 95.67581380208334 -259.16833224826377 96.45509440104165 -259.16833224826377
C 96.45509440104165 -259.16833224826377 103.65103759765624 -259.16833224826377 103.65103759765624 -259.16833224826377
C 104.43031819661456 -259.16833224826377 105.06214870876735 -259.8580403645834 105.06214870876735 -260.7082899305556
C 105.06214870876735 -260.7082899305556 105.06214870876735 -267.38833007812497 105.06214870876735 -268.2261773003472
C 105.06214870876735 -268.2261773003472 105.06490478515624 -269.0419759114584 106.05175238715276 -269.04542100694437
C 106.08224148220485 -269.04542100694437 106.17422553168402 -269.04542100694437 106.17422553168402 -269.04542100694437
C 106.17422553168402 -269.04542100694437 106.5397501627604 -269.04611002604156 106.5397501627604 -269.04611002604156
C 106.5397501627604 -269.04611002604156 106.5397501627604 -269.0419759114584 106.5397501627604 -269.0419759114584
C 106.5397501627604 -269.0419759114584 133.39478624131945 -269.0419759114584 133.39478624131945 -269.0419759114584
C 133.39478624131945 -269.0419759114584 173.66347384982637 -269.0419759114584 173.66347384982637 -269.0419759114584
C 173.66347384982637 -269.0419759114584 173.72445203993055 -269.0419759114584 173.72445203993055 -269.0419759114584
C 173.72445203993055 -269.0419759114584 173.80920138888885 -269.0405978732637 173.80920138888885 -269.0405978732637
C 173.80920138888885 -269.0405978732637 173.8939507378472 -269.0357747395834 173.8939507378472 -269.0357747395834
C 173.8939507378472 -269.0357747395834 173.9780110677083 -269.02888454861125 173.9780110677083 -269.02888454861125
C 173.9780110677083 -269.02888454861125 174.0620713975694 -269.01923828125 174.0620713975694 -269.01923828125
C 174.0620713975694 -269.01923828125 174.14613172743054 -269.0068359375 174.14613172743054 -269.0068359375
C 174.14613172743054 -269.0068359375 174.2288140190972 -268.99098849826373 174.2288140190972 -268.99098849826373
C 174.2288140190972 -268.99098849826373 174.31149631076386 -268.9730740017362 174.31149631076386 -268.9730740017362
C 174.31149631076386 -268.9730740017362 174.39417860243054 -268.9517144097222 174.39417860243054 -268.9517144097222
C 174.39417860243054 -268.9517144097222 174.47548285590275 -268.9282877604166 174.47548285590275 -268.9282877604166
C 174.47548285590275 -268.9282877604166 174.55540907118055 -268.9021050347222 174.55540907118055 -268.9021050347222
C 174.55540907118055 -268.9021050347222 174.63533528645831 -268.87316623263877 174.63533528645831 -268.87316623263877
C 174.63533528645831 -268.87316623263877 174.71388346354166 -268.8414713541666 174.71388346354166 -268.8414713541666
C 174.71388346354166 -268.8414713541666 174.79105360243054 -268.8070203993056 174.79105360243054 -268.8070203993056
C 174.79105360243054 -268.8070203993056 174.8675347222222 -268.7698133680556 174.8675347222222 -268.7698133680556
C 174.8675347222222 -268.7698133680556 174.94263780381942 -268.7305392795137 174.94263780381942 -268.7305392795137
C 174.94263780381942 -268.7305392795137 175.015673828125 -268.68919813368063 175.015673828125 -268.68919813368063
C 175.015673828125 -268.68919813368063 175.0880208333333 -268.64441189236123 175.0880208333333 -268.64441189236123
C 175.0880208333333 -268.64441189236123 175.1589898003472 -268.5982476128472 175.1589898003472 -268.5982476128472
C 175.1589898003472 -268.5982476128472 175.22789171006943 -268.54932725694437 175.22789171006943 -268.54932725694437
C 175.22789171006943 -268.54932725694437 175.2954155815972 -268.4976508246528 175.2954155815972 -268.4976508246528
C 175.2954155815972 -268.4976508246528 175.3608723958333 -268.44459635416655 175.3608723958333 -268.44459635416655
C 175.3608723958333 -268.44459635416655 175.424951171875 -268.3887858072916 175.424951171875 -268.3887858072916
C 175.424951171875 -268.3887858072916 175.486962890625 -268.330908203125 175.486962890625 -268.330908203125
C 175.486962890625 -268.330908203125 175.5469075520833 -268.27165256076375 175.5469075520833 -268.27165256076375
C 175.5469075520833 -268.27165256076375 175.60478515625 -268.20964084201375 175.60478515625 -268.20964084201375
C 175.60478515625 -268.20964084201375 175.66059570312498 -268.14625108506937 175.66059570312498 -268.14625108506937
C 175.66059570312498 -268.14625108506937 175.7143391927083 -268.0807942708334 175.7143391927083 -268.0807942708334
C 175.7143391927083 -268.0807942708334 175.76532660590274 -268.0132703993056 175.76532660590274 -268.0132703993056
C 175.76532660590274 -268.0132703993056 175.81493598090276 -267.9443684895834 175.81493598090276 -267.9443684895834
C 175.81493598090276 -267.9443684895834 175.86178927951386 -267.8740885416666 175.86178927951386 -267.8740885416666
C 175.86178927951386 -267.8740885416666 175.90657552083331 -267.8024305555556 175.90657552083331 -267.8024305555556
C 175.90657552083331 -267.8024305555556 175.94860568576385 -267.72870551215277 175.94860568576385 -267.72870551215277
C 175.94860568576385 -267.72870551215277 175.98856879340275 -267.6536024305556 175.98856879340275 -267.6536024305556
C 175.98856879340275 -267.6536024305556 176.02577582465275 -267.5778103298612 176.02577582465275 -267.5778103298612
C 176.02577582465275 -267.5778103298612 176.06022677951387 -267.5006401909722 176.06022677951387 -267.5006401909722
C 176.06022677951387 -267.5006401909722 176.0919216579861 -267.42209201388874 176.0919216579861 -267.42209201388874
C 176.0919216579861 -267.42209201388874 176.12154947916665 -267.34285481770837 176.12154947916665 -267.34285481770837
C 176.12154947916665 -267.34285481770837 176.1484212239583 -267.2622395833334 176.1484212239583 -267.2622395833334
C 176.1484212239583 -267.2622395833334 176.17184787326386 -267.1809353298612 176.17184787326386 -267.1809353298612
C 176.17184787326386 -267.1809353298612 176.193896484375 -267.0989420572916 176.193896484375 -267.0989420572916
C 176.193896484375 -267.0989420572916 176.21181098090275 -267.0169487847222 176.21181098090275 -267.0169487847222
C 176.21181098090275 -267.0169487847222 176.22765842013885 -266.9335774739584 176.22765842013885 -266.9335774739584
C 176.22765842013885 -266.9335774739584 176.2407497829861 -266.8495171440972 176.2407497829861 -266.8495171440972
C 176.2407497829861 -266.8495171440972 176.2503960503472 -266.76545681423625 176.2503960503472 -266.76545681423625
C 176.2503960503472 -266.76545681423625 176.25866427951385 -266.681396484375 176.25866427951385 -266.681396484375
C 176.25866427951385 -266.681396484375 176.2627983940972 -266.59664713541656 176.2627983940972 -266.59664713541656
C 176.2627983940972 -266.59664713541656 176.26417643229166 -266.5118977864584 176.26417643229166 -266.5118977864584
C 176.26417643229166 -266.5118977864584 176.26417643229166 -266.5015625 176.26417643229166 -266.5015625
C 176.26417643229166 -266.5015625 176.26417643229166 -12.501734754774303 176.26417643229166 -12.501734754774303
C 176.26417643229166 -12.501734754774303 176.2627983940972 -12.416985405815971 176.2627983940972 -12.416985405815971
C 176.2627983940972 -12.416985405815971 176.25866427951385 -12.332236056857637 176.25866427951385 -12.332236056857637
C 176.25866427951385 -12.332236056857637 176.25177408854165 -12.248175726996525 176.25177408854165 -12.248175726996525
C 176.25177408854165 -12.248175726996525 176.24212782118053 -12.164115397135415 176.24212782118053 -12.164115397135415
C 176.24212782118053 -12.164115397135415 176.22972547743055 -12.080055067274303 176.22972547743055 -12.080055067274303
C 176.22972547743055 -12.080055067274303 176.21387803819442 -11.997372775607637 176.21387803819442 -11.997372775607637
C 176.21387803819442 -11.997372775607637 176.19596354166666 -11.914690483940971 176.19596354166666 -11.914690483940971
C 176.19596354166666 -11.914690483940971 176.17460394965275 -11.832697211371524 176.17460394965275 -11.832697211371524
C 176.17460394965275 -11.832697211371524 176.1511773003472 -11.751392957899302 176.1511773003472 -11.751392957899302
C 176.1511773003472 -11.751392957899302 176.12499457465276 -11.670777723524303 176.12499457465276 -11.670777723524303
C 176.12499457465276 -11.670777723524303 176.09605577256943 -11.590851508246525 176.09605577256943 -11.590851508246525
C 176.09605577256943 -11.590851508246525 176.0643608940972 -11.512303331163194 176.0643608940972 -11.512303331163194
C 176.0643608940972 -11.512303331163194 176.0299099392361 -11.435133192274302 176.0299099392361 -11.435133192274302
C 176.0299099392361 -11.435133192274302 175.9927029079861 -11.358652072482638 175.9927029079861 -11.358652072482638
C 175.9927029079861 -11.358652072482638 175.95411783854166 -11.284238009982637 175.95411783854166 -11.284238009982637
C 175.95411783854166 -11.284238009982637 175.91139865451387 -11.21051296657986 175.91139865451387 -11.21051296657986
C 175.91139865451387 -11.21051296657986 175.86730143229164 -11.138165961371525 175.86730143229164 -11.138165961371525
C 175.86730143229164 -11.138165961371525 175.82113715277777 -11.06788601345486 175.82113715277777 -11.06788601345486
C 175.82113715277777 -11.06788601345486 175.772216796875 -10.998295084635416 175.772216796875 -10.998295084635416
C 175.772216796875 -10.998295084635416 175.72122938368054 -10.930771213107638 175.72122938368054 -10.930771213107638
C 175.72122938368054 -10.930771213107638 175.6674858940972 -10.865314398871524 175.6674858940972 -10.865314398871524
C 175.6674858940972 -10.865314398871524 175.6116753472222 -10.80192464192708 175.6116753472222 -10.80192464192708
C 175.6116753472222 -10.80192464192708 175.55448676215275 -10.73991292317708 175.55448676215275 -10.73991292317708
C 175.55448676215275 -10.73991292317708 175.4938530815972 -10.679968261718749 175.4938530815972 -10.679968261718749
C 175.4938530815972 -10.679968261718749 175.43253038194442 -10.62140163845486 175.43253038194442 -10.62140163845486
C 175.43253038194442 -10.62140163845486 175.369140625 -10.56559109157986 175.369140625 -10.56559109157986
C 175.369140625 -10.56559109157986 175.30368381076386 -10.511847601996525 175.30368381076386 -10.511847601996525
C 175.30368381076386 -10.511847601996525 175.2361599392361 -10.46086018880208 175.2361599392361 -10.46086018880208
C 175.2361599392361 -10.46086018880208 175.16725802951387 -10.41125081380208 175.16725802951387 -10.41125081380208
C 175.16725802951387 -10.41125081380208 175.0969780815972 -10.364397515190971 175.0969780815972 -10.364397515190971
C 175.0969780815972 -10.364397515190971 175.0253200954861 -10.319611273871525 175.0253200954861 -10.319611273871525
C 175.0253200954861 -10.319611273871525 174.95159505208332 -10.277581108940971 174.95159505208332 -10.277581108940971
C 174.95159505208332 -10.277581108940971 174.8764919704861 -10.238307020399303 174.8764919704861 -10.238307020399303
C 174.8764919704861 -10.238307020399303 174.80069986979166 -10.201099989149302 174.80069986979166 -10.201099989149302
C 174.80069986979166 -10.201099989149302 174.72352973090275 -10.166649034288193 174.72352973090275 -10.166649034288193
C 174.72352973090275 -10.166649034288193 174.6449815538194 -10.13426513671875 174.6449815538194 -10.13426513671875
C 174.6449815538194 -10.13426513671875 174.56574435763886 -10.105326334635416 174.56574435763886 -10.105326334635416
C 174.56574435763886 -10.105326334635416 174.48512912326387 -10.07845458984375 174.48512912326387 -10.07845458984375
C 174.48512912326387 -10.07845458984375 174.40382486979166 -10.054338921440971 174.40382486979166 -10.054338921440971
C 174.40382486979166 -10.054338921440971 174.32252061631942 -10.03297932942708 174.32252061631942 -10.03297932942708
C 174.32252061631942 -10.03297932942708 174.23983832465277 -10.014375813802081 174.23983832465277 -10.014375813802081
C 174.23983832465277 -10.014375813802081 174.15646701388886 -9.998528374565971 174.15646701388886 -9.998528374565971
C 174.15646701388886 -9.998528374565971 174.07309570312498 -9.98543701171875 174.07309570312498 -9.98543701171875
C 174.07309570312498 -9.98543701171875 173.98903537326387 -9.975790744357639 173.98903537326387 -9.975790744357639
C 173.98903537326387 -9.975790744357639 173.90428602430555 -9.968211534288194 173.90428602430555 -9.968211534288194
C 173.90428602430555 -9.968211534288194 173.8195366753472 -9.963388400607638 173.8195366753472 -9.963388400607638
C 173.8195366753472 -9.963388400607638 173.7354763454861 -9.962010362413194 173.7354763454861 -9.962010362413194
C 173.7354763454861 -9.962010362413194 173.72445203993055 -9.962010362413194 173.72445203993055 -9.962010362413194
C 173.72445203993055 -9.962010362413194 41.644486490885406 -9.962010362413194 41.644486490885406 -9.962010362413194
C 41.644486490885406 -9.962010362413194 41.55973714192709 -9.963388400607638 41.55973714192709 -9.963388400607638
C 41.55973714192709 -9.963388400607638 41.475332302517344 -9.967522515190971 41.475332302517344 -9.967522515190971
C 41.475332302517344 -9.967522515190971 41.39092746310762 -9.974412706163193 41.39092746310762 -9.974412706163193
C 41.39092746310762 -9.974412706163193 41.30686713324653 -9.984058973524302 41.30686713324653 -9.984058973524302
C 41.30686713324653 -9.984058973524302 41.22315131293403 -9.997150336371524 41.22315131293403 -9.997150336371524
C 41.22315131293403 -9.997150336371524 41.13978000217013 -10.012308756510416 41.13978000217013 -10.012308756510416
C 41.13978000217013 -10.012308756510416 41.05709771050346 -10.030912272135415 41.05709771050346 -10.030912272135415
C 41.05709771050346 -10.030912272135415 40.97510443793403 -10.05158284505208 40.97510443793403 -10.05158284505208
C 40.97510443793403 -10.05158284505208 40.8938001844618 -10.075009494357637 40.8938001844618 -10.075009494357637
C 40.8938001844618 -10.075009494357637 40.813529459635404 -10.101881239149302 40.813529459635404 -10.101881239149302
C 40.813529459635404 -10.101881239149302 40.73394775390625 -10.130820041232639 40.73394775390625 -10.130820041232639
C 40.73394775390625 -10.130820041232639 40.65539957682291 -10.16251491970486 40.65539957682291 -10.16251491970486
C 40.65539957682291 -10.16251491970486 40.57788492838541 -10.19627685546875 40.57788492838541 -10.19627685546875
C 40.57788492838541 -10.19627685546875 40.50174831814234 -10.23348388671875 40.50174831814234 -10.23348388671875
C 40.50174831814234 -10.23348388671875 40.42664523654513 -10.272757975260415 40.42664523654513 -10.272757975260415
C 40.42664523654513 -10.272757975260415 40.353264702690964 -10.314788140190972 40.353264702690964 -10.314788140190972
C 40.353264702690964 -10.314788140190972 40.28091769748262 -10.358885362413194 40.28091769748262 -10.358885362413194
C 40.28091769748262 -10.358885362413194 40.21029324001734 -10.405738661024303 40.21029324001734 -10.405738661024303
C 40.21029324001734 -10.405738661024303 40.14139133029512 -10.45465901692708 40.14139133029512 -10.45465901692708
C 40.14139133029512 -10.45465901692708 40.073867458767346 -10.505646430121525 40.073867458767346 -10.505646430121525
C 40.073867458767346 -10.505646430121525 40.00806613498263 -10.55938991970486 40.00806613498263 -10.55938991970486
C 40.00806613498263 -10.55938991970486 39.94433186848959 -10.614511447482638 39.94433186848959 -10.614511447482638
C 39.94433186848959 -10.614511447482638 39.88232014973959 -10.672389051649303 39.88232014973959 -10.672389051649303
C 39.88232014973959 -10.672389051649303 39.822375488281246 -10.732333713107638 39.822375488281246 -10.732333713107638
C 39.822375488281246 -10.732333713107638 39.76449788411459 -10.793656412760416 39.76449788411459 -10.793656412760416
C 39.76449788411459 -10.793656412760416 39.70868733723959 -10.85773518880208 39.70868733723959 -10.85773518880208
C 39.70868733723959 -10.85773518880208 39.65494384765625 -10.923192003038194 39.65494384765625 -10.923192003038194
C 39.65494384765625 -10.923192003038194 39.60326741536459 -10.990026855468749 39.60326741536459 -10.990026855468749
C 39.60326741536459 -10.990026855468749 39.554002549913186 -11.058928765190972 39.554002549913186 -11.058928765190972
C 39.554002549913186 -11.058928765190972 39.50714925130209 -11.129208713107637 39.50714925130209 -11.129208713107637
C 39.50714925130209 -11.129208713107637 39.46270751953125 -11.201555718315971 39.46270751953125 -11.201555718315971
C 39.46270751953125 -11.201555718315971 39.42067735460069 -11.274591742621524 39.42067735460069 -11.274591742621524
C 39.42067735460069 -11.274591742621524 39.38071424696181 -11.34969482421875 39.38071424696181 -11.34969482421875
C 39.38071424696181 -11.34969482421875 39.34385172526041 -11.425486924913194 39.34385172526041 -11.425486924913194
C 39.34385172526041 -11.425486924913194 39.30905626085069 -11.502657063802081 39.30905626085069 -11.502657063802081
C 39.30905626085069 -11.502657063802081 39.27701687282987 -11.581205240885415 39.27701687282987 -11.581205240885415
C 39.27701687282987 -11.581205240885415 39.247733561197904 -11.66044243706597 39.247733561197904 -11.66044243706597
C 39.247733561197904 -11.66044243706597 39.22086181640625 -11.741057671440972 39.22086181640625 -11.741057671440972
C 39.22086181640625 -11.741057671440972 39.19709065755209 -11.822361924913194 39.19709065755209 -11.822361924913194
C 39.19709065755209 -11.822361924913194 39.17573106553819 -11.904355197482637 39.17573106553819 -11.904355197482637
C 39.17573106553819 -11.904355197482637 39.15712754991319 -11.987037489149303 39.15712754991319 -11.987037489149303
C 39.15712754991319 -11.987037489149303 39.14162462022569 -12.069719780815971 39.14162462022569 -12.069719780815971
C 39.14162462022569 -12.069719780815971 39.128533257378464 -12.153780110677081 39.128533257378464 -12.153780110677081
C 39.128533257378464 -12.153780110677081 39.11819797092012 -12.237840440538193 39.11819797092012 -12.237840440538193
C 39.11819797092012 -12.237840440538193 39.11096327039931 -12.321900770399303 39.11096327039931 -12.321900770399303
C 39.11096327039931 -12.321900770399303 39.10614013671875 -12.406650119357638 39.10614013671875 -12.406650119357638
C 39.10614013671875 -12.406650119357638 39.104417588975686 -12.491399468315972 39.104417588975686 -12.491399468315972
C 39.104417588975686 -12.491399468315972 39.104417588975686 -12.501734754774303 39.104417588975686 -12.501734754774303
C 39.104417588975686 -12.501734754774303 39.10424533420137 -203.63683810763888 39.10424533420137 -236.7428276909722
C 39.10424533420137 -236.7428276909722 39.10286729600694 -236.76694335937498 39.10286729600694 -236.76694335937498
C 39.10321180555556 -240.46766493055551 39.10458984375 -266.5015625 39.104417588975686 -266.5015625
C 39.104417588975686 -266.5015625 39.105795627170124 -266.5863118489584 39.105795627170124 -266.5863118489584
C 39.105795627170124 -266.5863118489584 39.11027425130209 -266.6710611979166 39.11027425130209 -266.6710611979166
C 39.11027425130209 -266.6710611979166 39.11716444227431 -266.75512152777776 39.11716444227431 -266.75512152777776
C 39.11716444227431 -266.75512152777776 39.12715521918403 -266.8391818576387 39.12715521918403 -266.8391818576387
C 39.12715521918403 -266.8391818576387 39.13955756293403 -266.92324218749997 39.13955756293403 -266.92324218749997
C 39.13955756293403 -266.92324218749997 39.15506049262153 -267.00661349826373 39.15506049262153 -267.00661349826373
C 39.15506049262153 -267.00661349826373 39.17331949869791 -267.0892957899306 39.17331949869791 -267.0892957899306
C 39.17331949869791 -267.0892957899306 39.19433458116319 -267.17128906249997 39.19433458116319 -267.17128906249997
C 39.19433458116319 -267.17128906249997 39.21810574001737 -267.2525933159722 39.21810574001737 -267.2525933159722
C 39.21810574001737 -267.2525933159722 39.244288465711804 -267.33251953125 39.244288465711804 -267.33251953125
C 39.244288465711804 -267.33251953125 39.27322726779512 -267.4124457465278 39.27322726779512 -267.4124457465278
C 39.27322726779512 -267.4124457465278 39.30492214626737 -267.4909939236112 39.30492214626737 -267.4909939236112
C 39.30492214626737 -267.4909939236112 39.339373101128466 -267.5681640625 39.339373101128466 -267.5681640625
C 39.339373101128466 -267.5681640625 39.37589111328125 -267.6446451822916 39.37589111328125 -267.6446451822916
C 39.37589111328125 -267.6446451822916 39.41550971137153 -267.71974826388873 39.41550971137153 -267.71974826388873
C 39.41550971137153 -267.71974826388873 39.45719536675347 -267.79278428819435 39.45719536675347 -267.79278428819435
C 39.45719536675347 -267.79278428819435 39.501637098524306 -267.8651312934028 39.501637098524306 -267.8651312934028
C 39.501637098524306 -267.8651312934028 39.548145887586806 -267.9361002604166 39.548145887586806 -267.9361002604166
C 39.548145887586806 -267.9361002604166 39.597066243489586 -268.00500217013877 39.597066243489586 -268.00500217013877
C 39.597066243489586 -268.00500217013877 39.648398166232624 -268.07252604166655 39.648398166232624 -268.07252604166655
C 39.648398166232624 -268.07252604166655 39.701797146267346 -268.13798285590275 39.701797146267346 -268.13798285590275
C 39.701797146267346 -268.13798285590275 39.75726318359375 -268.2020616319444 39.75726318359375 -268.2020616319444
C 39.75726318359375 -268.2020616319444 39.815140787760406 -268.2640733506944 39.815140787760406 -268.2640733506944
C 39.815140787760406 -268.2640733506944 39.874740939670126 -268.32401801215275 39.874740939670126 -268.32401801215275
C 39.874740939670126 -268.32401801215275 39.93640814887153 -268.38189561631935 39.93640814887153 -268.38189561631935
C 39.93640814887153 -268.38189561631935 40.000142415364586 -268.4377061631944 40.000142415364586 -268.4377061631944
C 40.000142415364586 -268.4377061631944 40.065599229600686 -268.49144965277776 40.065599229600686 -268.49144965277776
C 40.065599229600686 -268.49144965277776 40.13277859157984 -268.5431260850694 40.13277859157984 -268.5431260850694
C 40.13277859157984 -268.5431260850694 40.201680501302086 -268.5920464409722 40.201680501302086 -268.5920464409722
C 40.201680501302086 -268.5920464409722 40.27230495876734 -268.6388997395834 40.27230495876734 -268.6388997395834
C 40.27230495876734 -268.6388997395834 40.34396294487846 -268.6836859809028 40.34396294487846 -268.6836859809028
C 40.34396294487846 -268.6836859809028 40.417687988281244 -268.7257161458334 40.417687988281244 -268.7257161458334
C 40.417687988281244 -268.7257161458334 40.492446560329846 -268.7656792534722 40.492446560329846 -268.7656792534722
C 40.492446560329846 -268.7656792534722 40.56858317057291 -268.802197265625 40.56858317057291 -268.802197265625
C 40.56858317057291 -268.802197265625 40.6457533094618 -268.8373372395834 40.6457533094618 -268.8373372395834
C 40.6457533094618 -268.8373372395834 40.72395697699653 -268.8690321180556 40.72395697699653 -268.8690321180556
C 40.72395697699653 -268.8690321180556 40.80353868272569 -268.8986599392362 40.80353868272569 -268.8986599392362
C 40.80353868272569 -268.8986599392362 40.883809407552086 -268.9248426649306 40.883809407552086 -268.9248426649306
C 40.883809407552086 -268.9248426649306 40.965113661024304 -268.9489583333334 40.965113661024304 -268.9489583333334
C 40.965113661024304 -268.9489583333334 41.047106933593746 -268.9703179253472 41.047106933593746 -268.9703179253472
C 41.047106933593746 -268.9703179253472 41.129444715711806 -268.9889214409722 41.129444715711806 -268.9889214409722
C 41.129444715711806 -268.9889214409722 41.212816026475686 -269.0047688802084 41.212816026475686 -269.0047688802084
C 41.212816026475686 -269.0047688802084 41.29653184678819 -269.0178602430556 41.29653184678819 -269.0178602430556
C 41.29653184678819 -269.0178602430556 41.38059217664931 -269.02819552951377 41.38059217664931 -269.02819552951377
C 41.38059217664931 -269.02819552951377 41.46499701605903 -269.0350857204862 41.46499701605903 -269.0350857204862
C 41.46499701605903 -269.0350857204862 41.549401855468744 -269.0399088541666 41.549401855468744 -269.0399088541666
C 41.549401855468744 -269.0399088541666 41.63415120442709 -269.0419759114584 41.63415120442709 -269.0419759114584
C 41.63415120442709 -269.0419759114584 41.644486490885406 -269.0419759114584 41.644486490885406 -269.0419759114584
C 41.644486490885406 -269.0419759114584 41.58368055555555 -269.0419759114584 41.58368055555555 -269.0419759114584
C 41.58368055555555 -269.0419759114584 41.63415120442709 -269.04404296875 41.63415120442709 -269.04404296875
C 42.69076199001734 -269.04404296875 79.14193929036459 -269.0447319878472 91.24507649739584 -269.04542100694437 " stroke="#191919" stroke-width="0.35 px" style="stroke-width:0.35;stroke-miterlimit:4;stroke-dasharray:none;stroke-linecap:square;fill:none;fill-opacity:1;fill-rule: evenodd"/>
<title>b'Shape016'</title>
</g>
</svg>