<?xml version="1.0"?>
<!DOCTYPE svg PUBLIC "-//W3C//DTD SVG 1.1//EN" "http://www.w3.org/Graphics/SVG/1.1/DTD/svg11.dtd">
<svg width="139.90310228523362mm" height="261.8265786272886mm" viewBox="0 0 139.90310228523362 261.8265786272886" xmlns="http://www.w3.org/2000/svg" version="1.1">
<g id="Shape004" transform="translate(-37.732628,-8.590441) scale(1,-1)">
<path id="Shape004"  d="M 43.66003960503472 -14.019299316406249 C 42.831494140625 -14.019299316406249 42.16004503038194 -14.691092936197913 42.16004503038194 -15.519293891059025 C 42.16004503038194 -16.34783935546875 42.831494140625 -17.019288465711806 43.66003960503472 -17.019288465711806 C 44.48858506944444 -17.019288465711806 45.1600341796875 -16.34783935546875 45.1600341796875 -15.519293891059025 C 45.1600341796875 -14.691092936197913 44.48858506944444 -14.019299316406249 43.66003960503472 -14.019299316406249 " stroke="#191919" stroke-width="0.35 px" style="stroke-width:0.35;stroke-miterlimit:4;stroke-dasharray:none;stroke-linecap:square;fill:none;fill-opacity:1;fill-rule: evenodd"/>
<title>b'Shape004'</title>
</g>
<g id="Shape001" transform="translate(-37.732628,-8.590441) scale(1,-1)">
<path id="Shape001"  d="M 93.97255859375 -265.29509006076375 C 93.97255859375 -266.123291015625 93.30093722873262 -266.7950846354166 92.47256401909722 -266.7950846354166 C 91.6441908094618 -266.7950846354166 90.97256944444443 -266.123291015625 90.97256944444443 -265.29509006076375 C 90.97256944444443 -264.4662000868056 91.6441908094618 -263.7950954861112 92.47256401909722 -263.7950954861112 C 93.30093722873262 -263.7950954861112 93.97255859375 -264.4662000868056 93.97255859375 -265.29509006076375 " stroke="#191919" stroke-width="0.35 px" style="stroke-width:0.35;stroke-miterlimit:4;stroke-dasharray:none;stroke-linecap:square;fill:none;fill-opacity:1;fill-rule: evenodd"/>
<title>b'Shape001'</title>
</g>
<g id="Shape" transform="translate(-37.732628,-8.590441) scale(1,-1)">
<path id="Shape"  d="M 109.25224609374999 -265.29509006076375 C 109.25224609374999 -266.123291015625 108.54117838541666 -266.7950846354166 107.71280517578124 -266.7950846354166 C 106.88425971137151 -266.7950846354166 106.21281060112845 -266.123291015625 106.21281060112845 -265.29509006076375 C 106.21281060112845 -264.4662000868056 106.9238783094618 -263.7950954861112 107.75242377387151 -263.7950954861112 C 108.4750325520833 -263.7950954861112 109.25224609374999 -264.4668891059028 109.25224609374999 -265.29509006076375 " stroke="#191919" stroke-width="0.35 px" style="stroke-width:0.35;stroke-miterlimit:4;stroke-dasharray:none;stroke-linecap:square;fill:none;fill-opacity:1;fill-rule: evenodd"/>
<title>b'Shape'</title>
</g>
<g id="Shape002" transform="translate(-37.732628,-8.590441) scale(1,-1)">
<path id="Shape002"  d="M 171.65980631510416 -14.019299316406249 C 172.48835177951386 -14.019299316406249 173.15980088975692 -14.691092936197913 173.15980088975692 -15.519293891059025 C 173.15980088975692 -16.34783935546875 172.48835177951386 -17.019288465711806 171.65980631510416 -17.019288465711806 C 170.83160536024303 -17.019288465711806 170.15981174045137 -16.34783935546875 170.15981174045137 -15.519293891059025 C 170.15981174045137 -14.691092936197913 170.83160536024303 -14.019299316406249 171.65980631510416 -14.019299316406249 " stroke="#191919" stroke-width="0.35 px" style="stroke-width:0.35;stroke-miterlimit:4;stroke-dasharray:none;stroke-linecap:square;fill:none;fill-opacity:1;fill-rule: evenodd"/>
<title>b'Shape002'</title>
</g>
<g id="Shape003" transform="translate(-37.732628,-8.590441) scale(1,-1)">
<path id="Shape003"  d="M 171.65980631510416 -265.019482421875 C 172.48835177951386 -265.019482421875 173.15980088975692 -264.3476888020834 173.15980088975692 -263.5194878472222 C 173.15980088975692 -262.69128689236123 172.48835177951386 -262.0194932725694 171.65980631510416 -262.0194932725694 C 170.83160536024303 -262.0194932725694 170.15981174045137 -262.69128689236123 170.15981174045137 -263.5194878472222 C 170.15981174045137 -264.3476888020834 170.83160536024303 -265.019482421875 171.65980631510416 -265.019482421875 " stroke="#191919" stroke-width="0.35 px" style="stroke-width:0.35;stroke-miterlimit:4;stroke-dasharray:none;stroke-linecap:square;fill:none;fill-opacity:1;fill-rule: evenodd"/>
<title>b'Shape003'</title>
</g>
<g id="Shape011" transform="translate(-37.732628,-8.590441) scale(1,-1)">
<path id="Shape011"  d="M 143.03829752604165 -228.4153428819444 C 143.8210232204861 -228.4153428819444 144.45560980902775 -228.82289767795137 144.45560980902775 -229.32519259982638 C 144.45560980902775 -229.32519259982638 144.45560980902775 -242.51784125434023 144.45560980902775 -242.51784125434023 C 144.45560980902775 -243.02013617621523 143.8210232204861 -243.4273464626736 143.03829752604165 -243.4273464626736 C 143.03829752604165 -243.4273464626736 135.5548611111111 -243.4273464626736 135.5548611111111 -243.4273464626736 C 134.77213541666666 -243.4273464626736 134.137548828125 -243.02013617621523 134.137548828125 -242.51784125434023 C 134.137548828125 -242.51784125434023 134.137548828125 -229.32519259982638 134.137548828125 -229.32519259982638 C 134.137548828125 -228.82289767795137 134.77213541666666 -228.4153428819444 135.5548611111111 -228.4153428819444 C 135.5548611111111 -228.4153428819444 143.03829752604165 -228.4153428819444 143.03829752604165 -228.4153428819444 " stroke="#191919" stroke-width="0.35 px" style="stroke-width:0.35;stroke-miterlimit:4;stroke-dasharray:none;stroke-linecap:square;fill:none;fill-opacity:1;fill-rule: evenodd"/>
<title>b'Shape011'</title>
</g>
<g id="Shape010" transform="translate(-37.732628,-8.590441) scale(1,-1)">
<path id="Shape010"  d="M 82.97977566189235 -47.26464301215278 C 83.76250135633681 -47.26464301215278 84.39708794487846 -47.67185329861109 84.39708794487846 -48.17414822048609 C 84.39708794487846 -48.17414822048609 84.39708794487846 -61.366796875 84.39708794487846 -61.366796875 C 84.39708794487846 -61.869436306423594 83.76250135633681 -62.27664659288193 82.97977566189235 -62.27664659288193 C 82.97977566189235 -62.27664659288193 75.4961669921875 -62.27664659288193 75.4961669921875 -62.27664659288193 C 74.71361355251734 -62.27664659288193 74.07885470920138 -61.869436306423594 74.07885470920138 -61.366796875 C 74.07885470920138 -61.366796875 74.07885470920138 -48.17414822048609 74.07885470920138 -48.17414822048609 C 74.07885470920138 -47.67185329861109 74.71361355251734 -47.26464301215278 75.4961669921875 -47.26464301215278 C 75.4961669921875 -47.26464301215278 82.97977566189235 -47.26464301215278 82.97977566189235 -47.26464301215278 " stroke="#191919" stroke-width="0.35 px" style="stroke-width:0.35;stroke-miterlimit:4;stroke-dasharray:none;stroke-linecap:square;fill:none;fill-opacity:1;fill-rule: evenodd"/>
<title>b'Shape010'</title>
</g>
<g id="Shape006" transform="translate(-37.732628,-8.590441) scale(1,-1)">
<path id="Shape006"  d="M 171.65980631510416 -141.01947157118053 C 172.48835177951386 -141.01947157118053 173.15980088975692 -140.34767795138887 173.15980088975692 -139.51930474175344 C 173.15980088975692 -138.69075927734374 172.48835177951386 -138.01931016710068 171.65980631510416 -138.01931016710068 C 170.83160536024303 -138.01931016710068 170.15981174045137 -138.69075927734374 170.15981174045137 -139.51930474175344 C 170.15981174045137 -140.34767795138887 170.83160536024303 -141.01947157118053 171.65980631510416 -141.01947157118053 " stroke="#191919" stroke-width="0.35 px" style="stroke-width:0.35;stroke-miterlimit:4;stroke-dasharray:none;stroke-linecap:square;fill:none;fill-opacity:1;fill-rule: evenodd"/>
<title>b'Shape006'</title>
</g>
<g id="Shape008" transform="translate(-37.732628,-8.590441) scale(1,-1)">
<path id="Shape008"  d="M 82.97977566189235 -168.00214843749998 C 83.76250135633681 -168.00214843749998 84.39708794487846 -168.40935872395832 84.39708794487846 -168.9116536458333 C 84.39708794487846 -168.9116536458333 84.39708794487846 -182.1046468098958 84.39708794487846 -182.1046468098958 C 84.39708794487846 -182.6069417317708 83.76250135633681 -183.01415201822914 82.97977566189235 -183.01415201822914 C 82.97977566189235 -183.01415201822914 75.4961669921875 -183.01415201822914 75.4961669921875 -183.01415201822914 C 74.71361355251734 -183.01415201822914 74.07885470920138 -182.6069417317708 74.07885470920138 -182.1046468098958 C 74.07885470920138 -182.1046468098958 74.07885470920138 -168.9116536458333 74.07885470920138 -168.9116536458333 C 74.07885470920138 -168.40935872395832 74.71361355251734 -168.00214843749998 75.4961669921875 -168.00214843749998 C 75.4961669921875 -168.00214843749998 82.97977566189235 -168.00214843749998 82.97977566189235 -168.00214843749998 " stroke="#191919" stroke-width="0.35 px" style="stroke-width:0.35;stroke-miterlimit:4;stroke-dasharray:none;stroke-linecap:square;fill:none;fill-opacity:1;fill-rule: evenodd"/>
<title>b'Shape008'</title>
</g>
<g id="Shape005" transform="translate(-37.732628,-8.590441) scale(1,-1)">
<path id="Shape005"  d="M 43.66003960503472 -265.019482421875 C 42.831494140625 -265.019482421875 42.16004503038194 -264.3476888020834 42.16004503038194 -263.5194878472222 C 42.16004503038194 -262.69128689236123 42.831494140625 -262.0194932725694 43.66003960503472 -262.0194932725694 C 44.48858506944444 -262.0194932725694 45.1600341796875 -262.69128689236123 45.1600341796875 -263.5194878472222 C 45.1600341796875 -264.3476888020834 44.48858506944444 -265.019482421875 43.66003960503472 -265.019482421875 " stroke="#191919" stroke-width="0.35 px" style="stroke-width:0.35;stroke-miterlimit:4;stroke-dasharray:none;stroke-linecap:square;fill:none;fill-opacity:1;fill-rule: evenodd"/>
<title>b'Shape005'</title>
</g>
<g id="Shape007" transform="translate(-37.732628,-8.590441) scale(1,-1)">
<path id="Shape007"  d="M 42.16004503038194 -139.51930474175344 C 42.16004503038194 -138.69075927734374 42.831494140625 -138.01931016710068 43.66003960503472 -138.01931016710068 C 44.48858506944444 -138.01931016710068 45.1600341796875 -138.69075927734374 45.1600341796875 -139.51930474175344 C 45.1600341796875 -140.34767795138887 44.48858506944444 -141.01947157118053 43.66003960503472 -141.01947157118053 C 42.831494140625 -141.01947157118053 42.16004503038194 -140.34767795138887 42.16004503038194 -139.51930474175344 " stroke="#191919" stroke-width="0.35 px" style="stroke-width:0.35;stroke-miterlimit:4;stroke-dasharray:none;stroke-linecap:square;fill:none;fill-opacity:1;fill-rule: evenodd"/>
<title>b'Shape007'</title>
</g>
<g id="Shape009" transform="translate(-37.732628,-8.590441) scale(1,-1)">
<path id="Shape009"  d="M 82.97977566189235 -107.58895399305554 C 83.76250135633681 -107.58895399305554 84.39708794487846 -107.99650878906249 84.39708794487846 -108.4988037109375 C 84.39708794487846 -108.4988037109375 84.39708794487846 -121.69145236545137 84.39708794487846 -121.69145236545137 C 84.39708794487846 -122.19374728732636 83.76250135633681 -122.60095757378471 82.97977566189235 -122.60095757378471 C 82.97977566189235 -122.60095757378471 75.4961669921875 -122.60095757378471 75.4961669921875 -122.60095757378471 C 74.71361355251734 -122.60095757378471 74.07885470920138 -122.19374728732636 74.07885470920138 -121.69145236545137 C 74.07885470920138 -121.69145236545137 74.07885470920138 -108.4988037109375 74.07885470920138 -108.4988037109375 C 74.07885470920138 -107.99650878906249 74.71361355251734 -107.58895399305554 75.4961669921875 -107.58895399305554 C 75.4961669921875 -107.58895399305554 82.97977566189235 -107.58895399305554 82.97977566189235 -107.58895399305554 " stroke="#191919" stroke-width="0.35 px" style="stroke-width:0.35;stroke-miterlimit:4;stroke-dasharray:none;stroke-linecap:square;fill:none;fill-opacity:1;fill-rule: evenodd"/>
<title>b'Shape009'</title>
</g>
<g id="Shape012" transform="translate(-37.732628,-8.590441) scale(1,-1)">
<path id="Shape012"  d="M 143.03829752604165 -168.00214843749998 C 143.8210232204861 -168.00214843749998 144.45560980902775 -168.40935872395832 144.45560980902775 -168.9116536458333 C 144.45560980902775 -168.9116536458333 144.45560980902775 -182.1046468098958 144.45560980902775 -182.1046468098958 C 144.45560980902775 -182.6069417317708 143.8210232204861 -183.01415201822914 143.03829752604165 -183.01415201822914 C 143.03829752604165 -183.01415201822914 135.5548611111111 -183.01415201822914 135.5548611111111 -183.01415201822914 C 134.77213541666666 -183.01415201822914 134.137548828125 -182.6069417317708 134.137548828125 -182.1046468098958 C 134.137548828125 -182.1046468098958 134.137548828125 -168.9116536458333 134.137548828125 -168.9116536458333 C 134.137548828125 -168.40935872395832 134.77213541666666 -168.00214843749998 135.5548611111111 -168.00214843749998 C 135.5548611111111 -168.00214843749998 143.03829752604165 -168.00214843749998 143.03829752604165 -168.00214843749998 " stroke="#191919" stroke-width="0.35 px" style="stroke-width:0.35;stroke-miterlimit:4;stroke-dasharray:none;stroke-linecap:square;fill:none;fill-opacity:1;fill-rule: evenodd"/>
<title>b'Shape012'</title>
</g>
<g id="Shape013" transform="translate(-37.732628,-8.590441) scale(1,-1)">
<path id="Shape013"  d="M 143.03829752604165 -107.58895399305554 C 143.8210232204861 -107.58895399305554 144.45560980902775 -107.99650878906249 144.45560980902775 -108.4988037109375 C 144.45560980902775 -108.4988037109375 144.45560980902775 -121.69145236545137 144.45560980902775 -121.69145236545137 C 144.45560980902775 -122.19374728732636 143.8210232204861 -122.60095757378471 143.03829752604165 -122.60095757378471 C 143.03829752604165 -122.60095757378471 135.5548611111111 -122.60095757378471 135.5548611111111 -122.60095757378471 C 134.77213541666666 -122.60095757378471 134.137548828125 -122.19374728732636 134.137548828125 -121.69145236545137 C 134.137548828125 -121.69145236545137 134.137548828125 -108.4988037109375 134.137548828125 -108.4988037109375 C 134.137548828125 -107.99650878906249 134.77213541666666 -107.58895399305554 135.5548611111111 -107.58895399305554 C 135.5548611111111 -107.58895399305554 143.03829752604165 -107.58895399305554 143.03829752604165 -107.58895399305554 " stroke="#191919" stroke-width="0.35 px" style="stroke-width:0.35;stroke-miterlimit:4;stroke-dasharray:none;stroke-linecap:square;fill:none;fill-opacity:1;fill-rule: evenodd"/>
<title>b'Shape013'</title>
</g>
<g id="Shape014" transform="translate(-37.732628,-8.590441) scale(1,-1)">
<path id="Shape014"  d="M 143.03829752604165 -47.26464301215278 C 143.8210232204861 -47.26464301215278 144.45560980902775 -47.67185329861109 144.45560980902775 -48.17414822048609 C 144.45560980902775 -48.17414822048609 144.45560980902775 -61.366796875 144.45560980902775 -61.366796875 C 144.45560980902775 -61.869436306423594 143.8210232204861 -62.27664659288193 143.03829752604165 -62.27664659288193 C 143.03829752604165 -62.27664659288193 135.5548611111111 -62.27664659288193 135.5548611111111 -62.27664659288193 C 134.77213541666666 -62.27664659288193 134.137548828125 -61.869436306423594 134.137548828125 -61.366796875 C 134.137548828125 -61.366796875 134.137548828125 -48.17414822048609 134.137548828125 -48.17414822048609 C 134.137548828125 -47.67185329861109 134.77213541666666 -47.26464301215278 135.5548611111111 -47.26464301215278 C 135.5548611111111 -47.26464301215278 143.03829752604165 -47.26464301215278 143.03829752604165 -47.26464301215278 " stroke="#191919" stroke-width="0.35 px" style="stroke-width:0.35;stroke-miterlimit:4;stroke-dasharray:none;stroke-linecap:square;fill:none;fill-opacity:1;fill-rule: evenodd"/>
<title>b'Shape014'</title>
</g>
<g id="Shape015" transform="translate(-37.732628,-8.590441) scale(1,-1)">
<path id="Shape015"  d="M 85.56170247395833 -211.71627604166662 C 85.56170247395833 -214.35246310763887 85.56170247395833 -221.19476725260412 85.56170247395833 -226.81819661458331 C 85.56170247395833 -227.77455512152773 84.90541178385415 -228.4153428819444 83.61143391927084 -228.4153428819444 C 83.54683837890624 -228.4153428819444 75.4961669921875 -228.4153428819444 75.4961669921875 -228.4153428819444 C 74.71361355251734 -228.4153428819444 74.07885470920138 -228.82289767795137 74.07885470920138 -229.32519259982638 C 74.07885470920138 -229.32519259982638 74.07885470920138 -242.51784125434023 74.07885470920138 -242.51784125434023 C 74.07885470920138 -243.02013617621523 74.71361355251734 -243.4273464626736 75.4961669921875 -243.4273464626736 C 75.4961669921875 -243.4273464626736 82.2678466796875 -243.4273464626736 82.2678466796875 -243.4273464626736 C 82.2678466796875 -243.4273464626736 83.33720431857638 -243.4273464626736 83.33720431857638 -242.62946234809024 C 83.33720431857638 -241.63899739583331 83.33720431857638 -241.00785590277772 83.33720431857638 -240.4104763454861 C 83.33720431857638 -239.35214301215274 84.61516248914931 -239.42586805555553 84.61516248914931 -239.42586805555553 C 84.61516248914931 -239.42586805555553 86.45225965711806 -239.42586805555553 86.45225965711806 -239.42586805555553 C 86.45225965711806 -239.42586805555553 87.37003309461807 -239.5140625 87.37003309461807 -240.39600694444442 C 87.37003309461807 -240.98511827256942 87.37003309461807 -243.0869710286458 87.37003309461807 -244.0853597005208 C 87.37003309461807 -244.92734103732639 88.13294949001734 -244.92734103732639 88.13294949001734 -244.92734103732639 C 88.13294949001734 -244.92734103732639 95.86288248697916 -244.92734103732639 95.86288248697916 -244.92734103732639 C 95.86288248697916 -244.92734103732639 96.89537760416665 -244.92734103732639 96.89537760416665 -243.93825412326387 C 96.89537760416665 -242.92332899305552 96.89537760416665 -240.8672960069444 96.89537760416665 -239.93849826388887 C 96.89537760416665 -239.9240288628472 96.89520534939234 -239.9088704427083 96.89537760416665 -239.8944010416666 C 96.90071750217012 -239.2570583767361 97.72599012586807 -239.26463758680552 97.91633165147569 -239.26463758680552 C 98.08031819661458 -239.26463758680552 98.8254923502604 -239.35834418402774 98.8254923502604 -238.8119520399305 C 98.8254923502604 -238.7961046006944 98.8254923502604 -238.31861436631942 98.8254923502604 -238.30345594618052 C 98.8254923502604 -231.79291449652774 98.8254923502604 -217.7114312065972 98.8254923502604 -212.21168077256942 C 98.8254923502604 -210.7165093315972 98.47081976996527 -210.24039713541663 97.17890896267359 -210.24039713541663 C 93.89090983072916 -210.24039713541663 87.47441948784721 -210.24039713541663 86.79608018663193 -210.24039713541663 C 85.91103515625 -210.24039713541663 85.56170247395833 -210.4098958333333 85.56170247395833 -211.71627604166662 " stroke="#191919" stroke-width="0.35 px" style="stroke-width:0.35;stroke-miterlimit:4;stroke-dasharray:none;stroke-linecap:square;fill:none;fill-opacity:1;fill-rule: evenodd"/>
<title>b'Shape015'</title>
</g>
</svg>