<?xml version="1.0"?>
<!DOCTYPE svg PUBLIC "-//W3C//DTD SVG 1.1//EN" "http://www.w3.org/Graphics/SVG/1.1/DTD/svg11.dtd">
<svg width="165.95819051106767mm" height="287.0517465549046mm" viewBox="0 0 165.95819051106767 287.0517465549046" xmlns="http://www.w3.org/2000/svg" version="1.1">



<g id="Shape332" transform="translate(-24.882796,-5.599736) scale(1,-1)">
<path id="Shape332_nwe0000"  d="M 33.417253960503466 -138.13661566840275 L 31.06735432942709 -139.4932942708333
L 28.71711018880209 -138.13661566840275
L 28.71711018880209 -135.42291395399303
L 31.06735432942709 -134.06589084201386
L 33.417253960503466 -135.42291395399303
L 33.417253960503466 -138.13661566840275 " stroke="#191919" stroke-width="0.35 px" style="stroke-width:0.35;stroke-miterlimit:4;stroke-dasharray:none;stroke-linecap:square;fill:none;fill-opacity:1;fill-rule: evenodd"/>
<title>b'Shape337'</title>
</g>

<g id="Shape338" transform="translate(-24.882796,-5.599736) scale(1,-1)">
<path id="Shape338_nwe0000"  d="M 33.41690945095487 -14.13626030815972 L 31.067009819878464 -15.492938910590276
L 28.71711018880209 -14.13626030815972
L 28.71711018880209 -11.422558593749999
L 31.067009819878464 -10.06553548177083
L 33.41690945095487 -11.422558593749999
L 33.41690945095487 -14.13626030815972 " stroke="#191919" stroke-width="0.35 px" style="stroke-width:0.35;stroke-miterlimit:4;stroke-dasharray:none;stroke-linecap:square;fill:none;fill-opacity:1;fill-rule: evenodd"/>
<title>b'Shape343'</title>
</g>

<g id="Shape344" transform="translate(-24.882796,-5.599736) scale(1,-1)">
<path id="Shape344"  d="M 77.1179456922743 -9.41337890625 C 78.66479356553818 -9.41337890625 79.60254855685763 -10.351133897569444 79.60254855685763 -11.72986111111111 C 79.60254855685763 -13.129258897569443 78.54559326171875 -13.948158094618055 77.20200602213541 -13.948158094618055 C 75.78848334418402 -13.948158094618055 74.73187255859375 -13.045198567708331 74.73187255859375 -11.65269097222222 C 74.73187255859375 -10.204372829861109 75.81638861762153 -9.41337890625 77.1179456922743 -9.41337890625 "
 stroke="#191919" stroke-width="0.35 px" style="stroke-width:0.35;stroke-miterlimit:4;stroke-dasharray:none;stroke-linecap:square;fill:none;fill-opacity:1;fill-rule: evenodd"/>
<title>b'hole'</title>
</g>




</svg>