<?xml version="1.0"?>
<!DOCTYPE svg PUBLIC "-//W3C//DTD SVG 1.1//EN" "http://www.w3.org/Graphics/SVG/1.1/DTD/svg11.dtd">
<svg width="165.95819051106767mm" height="287.0517465549046mm" viewBox="0 0 165.95819051106767 287.0517465549046" xmlns="http://www.w3.org/2000/svg" version="1.1">


<g id="Shape577" transform="translate(-24.882796,-5.599736) scale(1,-1)">
<path id="Shape577_nwe0000"  d="M 186.96154242621526 -162.85448676215276
L 184.6119873046875 -164.2111653645833
 L 182.2617431640625 -162.85448676215276
 L 182.2617431640625 -160.14112955729166
 L 184.6119873046875 -158.78376193576386
 L 186.96154242621526 -160.14112955729166
  L 186.96154242621526 -162.85448676215276 " stroke="#191919" stroke-width="0.35 px" style="stroke-width:0.35;stroke-miterlimit:4;stroke-dasharray:none;stroke-linecap:square;fill:none;fill-opacity:1;fill-rule: evenodd"/>
<title>b'Shape582'</title>
</g>

<g id="Shape583" transform="translate(-24.882796,-5.599736) scale(1,-1)">
<path id="Shape583_nwe0000"  d="M 186.96154242621526 -286.8544976128472 L 184.6119873046875 -288.21117621527776
L 182.2617431640625 -286.8544976128472
 L 182.2617431640625 -284.1411404079862
 L 184.6119873046875 -282.78377278645837
 L 186.96154242621526 -284.1411404079862
 L 186.96154242621526 -286.8544976128472 " stroke="#191919" stroke-width="0.35 px" style="stroke-width:0.35;stroke-miterlimit:4;stroke-dasharray:none;stroke-linecap:square;fill:none;fill-opacity:1;fill-rule: evenodd"/>
<title>b'hole'</title>
</g>



<g id="Shape589" transform="translate(-24.882796,-5.599736) scale(1,-1)">
<path id="Shape589"  d="M 137.48170301649304 -284.4215711805556 C 139.02855088975693 -284.4215711805556 139.96630588107635 -285.359326171875 139.96630588107635 -286.73805338541655 C 139.96630588107635 -288.137451171875 138.9093505859375 -288.9563503689237 137.56576334635415 -288.9563503689237 C 136.15258517795135 -288.9563503689237 135.0956298828125 -288.05339084201375 135.0956298828125 -286.66088324652776 C 135.0956298828125 -285.2125651041666 136.18014594184027 -284.4215711805556 137.48170301649304 -284.4215711805556 "
 stroke="#191919" stroke-width="0.35 px" style="stroke-width:0.35;stroke-miterlimit:4;stroke-dasharray:none;stroke-linecap:square;fill:none;fill-opacity:1;fill-rule: evenodd"/>
<title>b'hole'</title>
</g>


</svg>